{"url":"https://api.github.com/repos/k4yt3x/video2x/issues/608","repository_url":"https://api.github.com/repos/k4yt3x/video2x","labels_url":"https://api.github.com/repos/k4yt3x/video2x/issues/608/labels{/name}","comments_url":"https://api.github.com/repos/k4yt3x/video2x/issues/608/comments","events_url":"https://api.github.com/repos/k4yt3x/video2x/issues/608/events","html_url":"https://github.com/k4yt3x/video2x/issues/608","id":1160760258,"node_id":"I_kwDOB1EkMc5FL8vC","number":608,"title":"Audio stream re-encoded (needlessly?)","user":{"login":"Cat-Lady","id":6075406,"node_id":"MDQ6VXNlcjYwNzU0MDY=","avatar_url":"https://avatars.githubusercontent.com/u/6075406?v=4","gravatar_id":"","url":"https://api.github.com/users/Cat-Lady","html_url":"https://github.com/Cat-Lady","followers_url":"https://api.github.com/users/Cat-Lady/followers","following_url":"https://api.github.com/users/Cat-Lady/following{/other_user}","gists_url":"https://api.github.com/users/Cat-Lady/gists{/gist_id}","starred_url":"https://api.github.com/users/Cat-Lady/starred{/owner}{/repo}","subscriptions_url":"https://api.github.com/users/Cat-Lady/subscriptions","organizations_url":"https://api.github.com/users/Cat-Lady/orgs","repos_url":"https://api.github.com/users/Cat-Lady/repos","events_url":"https://api.github.com/users/Cat-Lady/events{/privacy}","received_events_url":"https://api.github.com/users/Cat-Lady/received_events","type":"User","site_admin":false},"labels":[{"id":847238630,"node_id":"MDU6TGFiZWw4NDcyMzg2MzA=","url":"https://api.github.com/repos/k4yt3x/video2x/labels/type:Enhancement","name":"type:Enhancement","color":"54aaff","default":false,"description":"New feature or request"},{"id":3804515323,"node_id":"LA_kwDOB1EkMc7ixEv7","url":"https://api.github.com/repos/k4yt3x/video2x/labels/state:Queued","name":"state:Queued","color":"F9D0C4","default":false,"description":"This issue is already scheduled to be worked on"}],"state":"open","locked":false,"assignee":null,"assignees":[],"milestone":null,"comments":2,"created_at":"2022-03-07T00:15:36Z","updated_at":"2022-04-24T07:00:05Z","closed_at":null,"author_association":"NONE","active_lock_reason":null,"body":"Source audio stream:\r\n`Stream #1:1(und): Audio: aac (LC) (mp4a / 0x6134706D), 48000 Hz, stereo, fltp, 165 kb/s (default)`\r\n\r\nUpscaled video audio stream:\r\n`Stream #0:1(und): Audio: aac (LC) (mp4a / 0x6134706D), 48000 Hz, stereo, fltp, 128 kb/s (default)`\r\n\r\nShouldn't video2x skip re-encoding audio, and just copy existing one(s) -`-c:a copy` - instead? Why would it touch audio stream at all, when upscaling video? Even if you plan to allow customizing the `ffmpeg`` parameters from command line later on (automatically, rather poor quality settings are choose), it seems sensible that default behavior would be to not touch audio stream at all.\r\n\r\nCheers,\r\n/CatLady","closed_by":null,"reactions":{"url":"https://api.github.com/repos/k4yt3x/video2x/issues/608/reactions","total_count":0,"+1":0,"-1":0,"laugh":0,"hooray":0,"confused":0,"heart":0,"rocket":0,"eyes":0},"timeline_url":"https://api.github.com/repos/k4yt3x/video2x/issues/608/timeline","performed_via_github_app":null,"state_reason":null}